<svg xmlns="http://www.w3.org/2000/svg" width="360" height="360" viewBox="0 0 360 360">
  <rect width="360" height="360" fill="#f1f9e9"/>
  <circle cx="288" cy="288" r="118" fill="#e0f1d1"/>
  <path d="M96 302c28-86 74-150 146-204" fill="none" stroke="#7bbf62" stroke-width="6" stroke-linecap="round" opacity=".45"/>
  <g fill="#bde29f" stroke="#79bd62" stroke-width="3" opacity=".72">
    <path d="M150 214c-39-26-79-23-102 7 34 28 72 26 102-7Z"/>
    <path d="M194 158c-28-38-67-47-101-25 25 37 61 48 101 25Z"/>
    <path d="M234 115c20-42 56-64 95-51-14 41-43 63-95 51Z"/>
  </g>
  <circle cx="68" cy="68" r="42" fill="#ffffff" opacity=".52"/>
</svg>
