<svg xmlns="http://www.w3.org/2000/svg" width="360" height="360" viewBox="0 0 360 360">
  <rect width="360" height="360" fill="#f1f7ff"/>
  <circle cx="286" cy="286" r="126" fill="#d8eafe"/>
  <path d="M86 306c36-94 88-150 161-207" fill="none" stroke="#77a8df" stroke-width="6" stroke-linecap="round" opacity=".4"/>
  <g fill="#c7ddfb" stroke="#78a9e4" stroke-width="3" opacity=".78">
    <path d="M148 224c-40-23-78-18-101 13 34 24 72 20 101-13Z"/>
    <path d="M196 166c-29-37-68-46-100-22 27 37 62 47 100 22Z"/>
    <path d="M236 116c22-41 60-61 98-46-17 41-49 63-98 46Z"/>
  </g>
  <path d="M244 292c20-31 45-52 82-70" fill="none" stroke="#99bce9" stroke-width="4" opacity=".32"/>
</svg>
